<mxfile host="app.diagrams.net" modified="2023-08-29T12:42:09.951Z" agent="Mozilla/5.0 (Macintosh; Intel Mac OS X 10_15_7) AppleWebKit/537.36 (KHTML, like Gecko) Chrome/116.0.0.0 Safari/537.36" version="21.6.9" etag="8JEU3TKzoF4IH3XE4CtQ" type="github">
  <diagram name="Page-1" id="KtC437doS44tO2pb6mZ8">
    <mxGraphModel>
      <root>
        <mxCell id="0" />
        <mxCell id="1" parent="0" />
      </root>
    </mxGraphModel>
  </diagram>
</mxfile>
